<svg xmlns="http://www.w3.org/2000/svg" viewBox="0 0 335.99 235.19"><defs><style>.cls-1{isolation:isolate;}.cls-2{fill:#ffc941;}.cls-3,.cls-5{fill:#9fa3a9;}.cls-14,.cls-3{opacity:0.4;mix-blend-mode:multiply;}.cls-4{fill:#ddd;}.cls-6{fill:#596374;}.cls-7{fill:#8fd5fb;}.cls-8{fill:#fff;}.cls-9{fill:#f05751;}.cls-10{fill:gray;}.cls-11{fill:#2f3b3b;}.cls-12{fill:#5fc39f;}.cls-13{fill:none;}</style></defs><title>D_22</title><g class="cls-1"><g id="items"><rect id="background" class="cls-2" y="-0.5" width="335.99" height="235.69"/><g id="table"><polygon class="cls-3" points="331.3 200.56 12.62 200.56 12.62 211.07 20.51 211.07 20.51 215.99 32.01 215.99 32.01 235.19 42.52 235.19 42.52 215.99 301.4 215.99 301.4 235.19 311.92 235.19 311.92 215.99 323.42 215.99 323.42 211.07 331.3 211.07 331.3 200.56"/><rect class="cls-4" x="8.65" y="200.56" width="318.68" height="10.51"/><rect class="cls-5" x="16.54" y="210.73" width="302.91" height="5.26"/><rect class="cls-6" x="28.04" y="215.96" width="10.51" height="19.23"/><rect class="cls-6" x="297.44" y="215.96" width="10.51" height="19.23"/></g><g id="window"><rect class="cls-7" x="42" width="149.5" height="147.25"/><path class="cls-8" d="M209.25,147.27H198V-0.28h-6.58V46.63H42.18V-0.28H35.6V147.27H23.25v6.58H36.42v6H198.28v-6h11v-6.58ZM42.18,53.21H191.42v94.06H42.18V53.21Z"/></g><g id="computer"><path class="cls-3" d="M247.56,79.31H105.24a3.65,3.65,0,0,0-3.63,3.64v91.88a3.65,3.65,0,0,0,3.63,3.64h55.47l-3.28,15.91h-10.8v6.14h59.85v-6.14H195.37l-3.64-15.91h55.83a3.66,3.66,0,0,0,3.65-3.64V82.95A3.66,3.66,0,0,0,247.56,79.31Z"/><polygon class="cls-6" points="190.56 194.38 186.83 178.08 155.97 178.08 152.6 194.38 141.81 194.38 141.81 200.52 201.67 200.52 201.67 194.38 190.56 194.38"/><path class="cls-4" d="M100.42,79.31a3.65,3.65,0,0,0-3.63,3.64v91.88a3.65,3.65,0,0,0,3.63,3.64H242.75a3.66,3.66,0,0,0,3.65-3.64V82.95a3.66,3.66,0,0,0-3.65-3.64H100.42Z"/><rect class="cls-8" x="104.34" y="86.87" width="134.48" height="84.04"/><rect class="cls-9" x="109.94" y="91.57" width="37.21" height="11.15"/><rect class="cls-4" x="152.98" y="91.57" width="81.15" height="11.15"/><rect class="cls-5" x="109.05" y="107.09" width="125.08" height="11.4"/><rect class="cls-5" x="109.26" y="155.01" width="123.9" height="7.05"/><rect class="cls-9" x="154.98" y="123.31" width="33.69" height="24.88"/><rect class="cls-10" x="154.98" y="142.17" width="33.69" height="6.03"/><rect class="cls-8" x="164.48" y="144.32" width="14.69" height="1.73"/><rect class="cls-4" x="109.26" y="123.76" width="33.68" height="24.88"/><rect class="cls-10" x="109.26" y="142.63" width="33.68" height="6.02"/><rect class="cls-8" x="118.76" y="144.76" width="14.69" height="1.75"/><rect class="cls-7" x="199.59" y="123.31" width="33.69" height="24.88"/><rect class="cls-10" x="199.59" y="142.17" width="33.69" height="6.03"/><rect class="cls-8" x="209.09" y="144.32" width="14.69" height="1.73"/><polygon class="cls-8" points="168.74 128.78 168.74 138.52 175.72 133.75 168.74 128.78"/><polygon class="cls-8" points="213.01 128.78 213.01 138.52 220 133.75 213.01 128.78"/></g><g id="mouse"><path class="cls-3" d="M251.06,200.44a17.34,17.34,0,0,0-30.21,0h30.21Z"/><path class="cls-8" d="M245.11,200.44a17.34,17.34,0,0,0-30.21,0h30.21Z"/></g><g id="laptop"><path class="cls-3" d="M171.8,197.14v-1.5a0.6,0.6,0,0,0-.6-0.6H155.95a3.58,3.58,0,0,0,3.58-3.58V126.84a3.58,3.58,0,0,0-1-2.54,3.62,3.62,0,0,0-2.54-1H54.83a3.57,3.57,0,0,0-3.58,3.58v64.62A3.58,3.58,0,0,0,54.83,195H39.57a0.6,0.6,0,0,0-.42.18,0.61,0.61,0,0,0-.18.43v1.5h0a10.51,10.51,0,0,0,8,3.63H163.84a10.51,10.51,0,0,0,8-3.63h0Z"/><path class="cls-11" d="M155.56,191.46A3.58,3.58,0,0,1,152,195H50.86a3.58,3.58,0,0,1-3.58-3.58V126.84a3.57,3.57,0,0,1,3.58-3.58H152a3.62,3.62,0,0,1,2.54,1,3.58,3.58,0,0,1,1,2.54v64.62Z"/><circle class="cls-12" cx="101.42" cy="125.99" r="1.46"/><path class="cls-8" d="M167.83,197.15h0v-1.5a0.6,0.6,0,0,0-.6-0.6H35.6a0.6,0.6,0,0,0-.42.18,0.61,0.61,0,0,0-.18.43v1.5h0a10.51,10.51,0,0,0,8,3.63H159.87a10.53,10.53,0,0,0,8-3.63h0Z"/><rect class="cls-7" x="52.91" y="128.78" width="97.01" height="60.63"/><polygon class="cls-12" points="97.04 170.3 122.82 144.08 138.81 160.34 138.81 136.47 64.14 136.47 64.14 185.51 89.31 161.87 97.04 170.3"/><polygon class="cls-11" points="89.31 161.87 64.14 185.51 82.09 185.51 97.04 170.3 89.31 161.87"/><polygon class="cls-6" points="122.82 144.08 97.04 170.3 82.09 185.51 110.98 185.51 138.81 185.51 138.81 160.34 122.82 144.08"/><rect class="cls-13" x="64.14" y="136.47" width="74.67" height="49.04"/><rect class="cls-8" x="64.1" y="136.37" width="74.62" height="3.85"/></g><g id="lamp"><g class="cls-14"><path class="cls-5" d="M323.38,149.36a6.18,6.18,0,0,0-.85-12L297.14,101l-4.85,4.11,24.22,34.67a6.15,6.15,0,0,0,.42,7.8L292.63,192c-10-.29-17.72-1.79-17.72,8.54h40.48c0-10.31-7.71-8.83-17.68-8.54l2.2-.08ZM295.15,192c-0.84,0-1.67,0-2.49,0,0.82,0,1.65,0,2.49,0s1.58,0,2.36,0C296.73,192,295.94,192,295.15,192Z"/><polygon class="cls-5" points="289.4 107.6 289.4 107.6 303.7 95.48 291.58 81.18 277.29 93.3 256.93 98.27 281.17 126.87 289.4 107.6"/></g><path class="cls-11" d="M293.18,101l-4.85,4.11,26.85,38.44L288.67,192c0.82,0,1.66,0,2.51,0,1.64,0,3.23-.06,4.76-0.12l26.79-48.54Z"/><circle class="cls-8" cx="317.54" cy="143.46" r="6.18"/><polygon class="cls-12" points="299.73 95.48 287.62 81.18 273.32 93.3 252.96 98.27 277.2 126.87 285.44 107.6 285.44 107.6 299.73 95.48"/><path class="cls-8" d="M311.42,200.5c0-11.18-9.06-8.5-20.24-8.5s-20.24-2.68-20.24,8.5h40.48Z"/></g><g id="picture"><rect class="cls-3" x="260.04" y="138.22" width="35.65" height="39.25"/><rect class="cls-8" x="255.22" y="138.22" width="35.65" height="39.25"/><rect class="cls-9" x="257.8" y="141.05" width="30.5" height="27.15"/><path class="cls-8" d="M275.47,146.53h-5.24l-5.84,15.54h4.9L270,159.5h5.45l0.78,2.56h5Zm-4.37,9.61,1.7-5.58,1.71,5.58h-3.41Z"/></g><g id="board"><rect class="cls-9" x="213.15" y="14.42" width="101.5" height="55.66"/><path class="cls-11" d="M210.14,10.23V72.51H317.65V10.23H210.14Zm6,57.3V15.22h95.49V67.53H216.15Z"/><rect class="cls-4" x="223.75" y="21" width="21" height="21"/><rect class="cls-8" x="258.5" y="57.25" width="21" height="21"/><rect class="cls-7" x="281.5" y="31.58" width="21" height="21"/><circle class="cls-7" cx="268.67" cy="61" r="1.5"/><circle class="cls-6" cx="234" cy="25.33" r="1.5"/><circle class="cls-2" cx="291.67" cy="35.33" r="1.5"/></g></g></g></svg>